# xmcd
#
# Track frame offsets:
#  150
#  14852
#  28492
#  40425
#  50832
#  67277
#  81687
#  92950
#  109172
#  126654
#  143897
#  158272
#  172370
#  183340
#
# Disc length: 2660 seconds
#
# Revision: 1
# Processed by: cddbd v1.5.1PL0 Copyright (c) Steve Scherf et al.
# Submitted via: Collectorz.com_Music_Collector 6.9
#
DISCID=e50a620e
DTITLE=Ray Vanderby - Mockingbird Blues
DYEAR=2004
DGENRE=Blues -  Blues Organ
TTITLE0=Further Up The Road
TTITLE1=Lucky Guy
TTITLE2=Don't You Leave Me
TTITLE3=Why Why Why
TTITLE4=Mockingbird Blues
TTITLE5=Come See About Me
TTITLE6=In Your Mood
TTITLE7=Steamy Jeanine
TTITLE8=Bad Boy
TTITLE9=The Way Love Is
TTITLE10=If You Don't Want My Lovin'
TTITLE11=Lead Me On
TTITLE12=I Don't Know
TTITLE13=Dedicated To The One I Love
EXTD=
EXTT0=
EXTT1=
EXTT2=
EXTT3=
EXTT4=
EXTT5=
EXTT6=
EXTT7=
EXTT8=
EXTT9=
EXTT10=
EXTT11=
EXTT12=
EXTT13=
PLAYORDER=
